# xmcd
#
# Track frame offsets:
#  150
#  16667
#  32595
#  51054
#  66190
#  82026
#  99754
#  113139
#  130867
#  141351
#  155001
#  176201
#  198817
#
# Disc length: 2841 seconds
#
# Revision: 1
# Processed by: cddbd v1.5.1PL2 Copyright (c) Steve Scherf et al.
# Submitted via: Collectorz.com_Music_Collector 6.10
#
DISCID=a70b170d
DTITLE=Arsen Shomakhov - Dangerous
DYEAR=2005
DGENRE=Blues -  Blues Guitar
TTITLE0=Dangerous
TTITLE1=Too Hot
TTITLE2=Let Me Be Your Romeo
TTITLE3=You're The One
TTITLE4=Low Down Shakin' Chill
TTITLE5=Trouble Maker
TTITLE6=Rainy Day
TTITLE7=Use What You Got
TTITLE8=The Arsonist
TTITLE9=Don't Miss Your Train
TTITLE10=Highway Cruise
TTITLE11=I Don't Know
TTITLE12=Beale Street Boogie
EXTD=
EXTT0=
EXTT1=
EXTT2=
EXTT3=
EXTT4=
EXTT5=
EXTT6=
EXTT7=
EXTT8=
EXTT9=
EXTT10=
EXTT11=
EXTT12=
PLAYORDER=
